<svg xmlns="http://www.w3.org/2000/svg" width="256" height="256" viewBox="0 0 100 100"><rect width="100" height="100" rx="20" fill="#7d6ee7"></rect><path fill="#fff" d="M55.31 51.13L55.31 51.13Q55.31 45.36 53.56 41.27Q51.80 37.17 48.79 34.56Q45.77 31.95 41.77 30.74Q37.76 29.52 33.17 29.52L33.17 29.52Q30.29 29.52 28.18 29.70Q26.06 29.88 24.26 30.24L24.26 30.24L24.26 73.08Q26.42 73.63 28.90 73.80Q31.37 73.98 33.98 73.98L33.98 73.98Q44.60 73.98 49.96 68.22Q55.31 62.46 55.31 51.13ZM62.78 51.13L62.78 51.13Q62.78 58.50 60.76 63.95Q58.73 69.39 55.00 72.99Q51.26 76.59 45.95 78.35Q40.64 80.10 34.07 80.10L34.07 80.10Q31.19 80.10 27.59 79.88Q23.99 79.66 20.75 78.66L20.75 78.66Q16.97 77.49 16.97 74.52L16.97 74.52L16.97 28.26Q16.97 26.82 17.69 26.06Q18.41 25.29 19.94 24.84L19.94 24.84Q22.73 23.95 26.24 23.67Q29.75 23.40 33.26 23.40L33.26 23.40Q39.83 23.40 45.28 25.16Q50.72 26.91 54.59 30.38Q58.46 33.84 60.62 39.02Q62.78 44.19 62.78 51.13ZM82.04 40.41L82.04 78.93Q81.59 79.11 80.69 79.34Q79.79 79.56 78.71 79.56L78.71 79.56Q74.84 79.56 74.84 76.32L74.84 76.32L74.84 37.71Q75.29 37.53 76.23 37.31Q77.18 37.08 78.26 37.08L78.26 37.08Q82.04 37.08 82.04 40.41L82.04 40.41ZM73.76 24.39L73.76 24.39Q73.76 22.50 75.06 21.20Q76.37 19.89 78.44 19.89L78.44 19.89Q80.51 19.89 81.77 21.20Q83.03 22.50 83.03 24.39L83.03 24.39Q83.03 26.28 81.77 27.59Q80.51 28.89 78.44 28.89L78.44 28.89Q76.37 28.89 75.06 27.59Q73.76 26.28 73.76 24.39Z"></path></svg>